<?xml version="1.0" standalone="no"?>
<!DOCTYPE svg PUBLIC "-//W3C//DTD SVG 20010904//EN"
 "http://www.w3.org/TR/2001/REC-SVG-20010904/DTD/svg10.dtd">
<svg version="1.0" xmlns="http://www.w3.org/2000/svg"
 width="225.000000pt" height="225.000000pt" viewBox="0 0 225.000000 225.000000"
 preserveAspectRatio="xMidYMid meet">

<g transform="translate(0.000000,225.000000) scale(0.100000,-0.100000)"
fill="#000000" stroke="none">
<path d="M1140 2164 c0 -10 177 -392 393 -849 326 -688 397 -831 415 -833 28
-4 71 54 133 183 109 227 135 471 74 711 -112 444 -491 770 -931 801 -78 6
-84 5 -84 -13z"/>
<path d="M763 2120 c-252 -90 -475 -294 -593 -543 -67 -140 -91 -242 -97 -404
-6 -159 5 -252 43 -372 54 -166 182 -376 226 -369 18 2 68 99 288 563 176 368
273 561 283 563 13 3 32 -28 76 -122 33 -69 62 -135 66 -145 4 -14 -70 -178
-235 -525 -146 -305 -240 -515 -238 -528 8 -59 234 -146 442 -170 192 -22 392
16 580 111 96 49 111 60 114 83 2 19 -125 297 -428 940 -238 502 -439 919
-448 926 -19 15 -15 15 -79 -8z"/>
</g>
</svg>
